<svg width="32" height="33" viewBox="0 0 32 33" fill="none" xmlns="http://www.w3.org/2000/svg">
<rect y="0.381348" width="32" height="32" rx="4" fill="white"/>
<g clip-path="url(#clip0_114_753)">
<path d="M22.6667 13.0482H18V11.7148H22.6667V13.0482ZM23.8173 19.7148C23.5227 20.5795 22.4647 21.7148 20.4167 21.7148C18.3673 21.7148 16.7073 20.5622 16.7073 17.9315C16.7073 15.3248 18.2573 13.9848 20.3513 13.9848C22.406 13.9848 23.6607 15.1728 23.9347 16.9355C23.9867 17.2728 24.0073 17.7275 23.998 18.3622H18.6467C18.7333 20.5028 20.9687 20.5702 21.7053 19.7148H23.8173ZM18.6933 17.0482H22.0033C21.9333 16.0168 21.246 15.5688 20.352 15.5688C19.3747 15.5688 18.834 16.0808 18.6933 17.0482ZM12.3107 21.7068H8V11.7288H12.6353C16.286 11.7828 16.3553 15.3582 14.4487 16.3328C16.756 17.1728 16.8333 21.7068 12.3107 21.7068ZM10 15.7148H12.3893C14.0613 15.7148 14.3267 13.7148 12.1813 13.7148H10V15.7148ZM12.2607 17.7148H10V19.7255H12.2273C14.264 19.7255 14.1393 17.7148 12.2607 17.7148Z" fill="#333333"/>
</g>
<defs>
<clipPath id="clip0_114_753">
<rect width="16" height="16" fill="white" transform="translate(8 8.38135)"/>
</clipPath>
</defs>
</svg>
