<svg width="82" height="83" viewBox="0 0 82 83" fill="none" xmlns="http://www.w3.org/2000/svg">
<g filter="url(#filter0_d_114_737)">
<rect x="25" y="22.3813" width="32" height="32" rx="4" fill="white"/>
<path d="M40.9942 36.2943C39.8473 36.2943 38.9114 37.2302 38.9114 38.3771C38.9114 39.524 39.8473 40.4599 40.9942 40.4599C42.1411 40.4599 43.077 39.524 43.077 38.3771C43.077 37.2302 42.1411 36.2943 40.9942 36.2943ZM47.2411 38.3771C47.2411 37.5146 47.2489 36.6599 47.2005 35.799C47.152 34.799 46.9239 33.9115 46.1927 33.1802C45.4598 32.4474 44.5739 32.2209 43.5739 32.1724C42.7114 32.124 41.8567 32.1318 40.9958 32.1318C40.1333 32.1318 39.2786 32.124 38.4177 32.1724C37.4177 32.2209 36.5302 32.449 35.7989 33.1802C35.0661 33.9131 34.8395 34.799 34.7911 35.799C34.7427 36.6615 34.7505 37.5162 34.7505 38.3771C34.7505 39.2381 34.7427 40.0943 34.7911 40.9552C34.8395 41.9552 35.0677 42.8427 35.7989 43.574C36.5317 44.3068 37.4177 44.5334 38.4177 44.5818C39.2802 44.6302 40.1348 44.6224 40.9958 44.6224C41.8583 44.6224 42.713 44.6302 43.5739 44.5818C44.5739 44.5334 45.4614 44.3052 46.1927 43.574C46.9255 42.8412 47.152 41.9552 47.2005 40.9552C47.2505 40.0943 47.2411 39.2396 47.2411 38.3771ZM40.9942 41.5818C39.2208 41.5818 37.7895 40.1506 37.7895 38.3771C37.7895 36.6037 39.2208 35.1724 40.9942 35.1724C42.7677 35.1724 44.1989 36.6037 44.1989 38.3771C44.1989 40.1506 42.7677 41.5818 40.9942 41.5818ZM44.3302 35.7896C43.9161 35.7896 43.5817 35.4552 43.5817 35.0412C43.5817 34.6271 43.9161 34.2927 44.3302 34.2927C44.7442 34.2927 45.0786 34.6271 45.0786 35.0412C45.0787 35.1395 45.0594 35.2369 45.0219 35.3277C44.9843 35.4186 44.9292 35.5012 44.8597 35.5707C44.7901 35.6402 44.7076 35.6953 44.6167 35.7329C44.5259 35.7705 44.4285 35.7897 44.3302 35.7896Z" fill="#333333"/>
</g>
<defs>
<filter id="filter0_d_114_737" x="0" y="0.381348" width="82" height="82" filterUnits="userSpaceOnUse" color-interpolation-filters="sRGB">
<feFlood flood-opacity="0" result="BackgroundImageFix"/>
<feColorMatrix in="SourceAlpha" type="matrix" values="0 0 0 0 0 0 0 0 0 0 0 0 0 0 0 0 0 0 127 0" result="hardAlpha"/>
<feOffset dy="3"/>
<feGaussianBlur stdDeviation="12.5"/>
<feComposite in2="hardAlpha" operator="out"/>
<feColorMatrix type="matrix" values="0 0 0 0 0.9125 0 0 0 0 0.9125 0 0 0 0 0.9125 0 0 0 1 0"/>
<feBlend mode="normal" in2="BackgroundImageFix" result="effect1_dropShadow_114_737"/>
<feBlend mode="normal" in="SourceGraphic" in2="effect1_dropShadow_114_737" result="shape"/>
</filter>
</defs>
</svg>
