<svg width="32" height="33" viewBox="0 0 32 33" fill="none" xmlns="http://www.w3.org/2000/svg">
<rect y="0.381348" width="32" height="32" rx="4" fill="white"/>
<g clip-path="url(#clip0_114_742)">
<path d="M12.134 22.3813H9.2315V13.0343H12.134V22.3813ZM10.681 11.7593C9.753 11.7593 9 10.9903 9 10.0623C9 9.61652 9.1771 9.18895 9.49235 8.8737C9.8076 8.55845 10.2352 8.38135 10.681 8.38135C11.1268 8.38135 11.5544 8.55845 11.8696 8.8737C12.1849 9.18895 12.362 9.61652 12.362 10.0623C12.362 10.9903 11.609 11.7593 10.681 11.7593ZM22.997 22.3813H20.101V17.8313C20.101 16.7468 20.079 15.3563 18.592 15.3563C17.083 15.3563 16.8515 16.5343 16.8515 17.7533V22.3813H13.952V13.0343H16.7355V14.3093H16.776C17.1635 13.5748 18.11 12.7998 19.522 12.7998C22.4595 12.7998 22.9995 14.7343 22.9995 17.2468V22.3813H22.997Z" fill="#333333"/>
</g>
<defs>
<clipPath id="clip0_114_742">
<rect width="16" height="16" fill="white" transform="translate(8 8.38135)"/>
</clipPath>
</defs>
</svg>
