<svg width="32" height="33" viewBox="0 0 32 33" fill="none" xmlns="http://www.w3.org/2000/svg">
<rect y="0.381348" width="32" height="32" rx="4" fill="white"/>
<path d="M16.1548 7.95996C11.5888 7.95996 7.88684 11.6329 7.88684 16.1642C7.88684 17.7142 8.32038 19.1638 9.07327 20.4005L7.58105 24.8021L12.1586 23.3479C13.3432 23.9977 14.7055 24.3684 16.1548 24.3684C20.7215 24.3684 24.4232 20.6949 24.4232 16.1642C24.4232 11.6329 20.7215 7.95996 16.1548 7.95996ZM20.2662 19.2799C20.0717 19.7621 19.192 20.2022 18.8038 20.2224C18.4161 20.243 18.405 20.523 16.291 19.6046C14.1773 18.6861 12.9056 16.4526 12.8053 16.3088C12.705 16.1655 11.9865 15.1416 12.0253 14.1112C12.0643 13.0806 12.6286 12.5944 12.83 12.3922C13.0311 12.1897 13.2618 12.1534 13.4026 12.1511C13.5691 12.1484 13.6769 12.1462 13.8001 12.1507C13.9232 12.1554 14.108 12.125 14.2681 12.5507C14.4281 12.9764 14.8111 14.0226 14.8601 14.1292C14.909 14.2359 14.9393 14.3595 14.8639 14.4965C14.7883 14.6339 14.7496 14.7197 14.6398 14.838C14.5295 14.9564 14.4077 15.1027 14.3093 15.1932C14.1995 15.2934 14.0849 15.4027 14.2003 15.6169C14.3156 15.8309 14.7135 16.5325 15.3198 17.1107C16.0989 17.854 16.7708 18.1005 16.9776 18.2129C17.1849 18.3258 17.3087 18.3132 17.4372 18.1779C17.5652 18.0426 17.9876 17.586 18.1363 17.3821C18.285 17.1777 18.4243 17.2177 18.6153 17.2945C18.8062 17.3717 19.8243 17.917 20.0316 18.0295C20.2388 18.1419 20.3772 18.1998 20.4267 18.2889C20.4762 18.3784 20.4606 18.7976 20.2662 19.2799Z" fill="#333333"/>
</svg>
