<svg width="32" height="33" viewBox="0 0 32 33" fill="none" xmlns="http://www.w3.org/2000/svg">
<rect y="0.381348" width="32" height="32" rx="4" fill="white"/>
<path d="M23.762 11.6726C23.2053 11.9192 22.6073 12.0859 21.9787 12.1612C22.6273 11.7731 23.1126 11.1622 23.344 10.4426C22.7346 10.8046 22.0676 11.0594 21.372 11.1959C20.9043 10.6965 20.2847 10.3655 19.6095 10.2542C18.9344 10.143 18.2414 10.2578 17.6382 10.5807C17.0349 10.9037 16.5552 11.4168 16.2734 12.0404C15.9917 12.6639 15.9237 13.3631 16.08 14.0292C14.8451 13.9672 13.6371 13.6463 12.5343 13.0872C11.4315 12.5281 10.4586 11.7433 9.67866 10.7839C9.412 11.2439 9.25866 11.7772 9.25866 12.3452C9.25837 12.8566 9.38429 13.3601 9.62525 13.8111C9.86621 14.2621 10.2148 14.6466 10.64 14.9306C10.1468 14.9149 9.66458 14.7816 9.23333 14.5419V14.5819C9.23328 15.2991 9.48135 15.9942 9.93545 16.5492C10.3896 17.1043 11.0217 17.4852 11.7247 17.6272C11.2672 17.751 10.7876 17.7693 10.322 17.6806C10.5203 18.2976 10.9067 18.8373 11.4269 19.2239C11.9472 19.6105 12.5753 19.8247 13.2233 19.8366C12.1232 20.7002 10.7646 21.1686 9.366 21.1666C9.11825 21.1666 8.87072 21.1522 8.62466 21.1232C10.0443 22.036 11.6969 22.5204 13.3847 22.5186C19.098 22.5186 22.2213 17.7866 22.2213 13.6826C22.2213 13.5492 22.218 13.4146 22.212 13.2812C22.8195 12.8419 23.3439 12.2978 23.7607 11.6746L23.762 11.6726V11.6726Z" fill="#333333"/>
</svg>
