<svg width="32" height="33" viewBox="0 0 32 33" fill="none" xmlns="http://www.w3.org/2000/svg">
<rect y="0.381348" width="32" height="32" rx="4" fill="white"/>
<path d="M22.7078 13.0079C22.6281 12.7111 22.4719 12.4404 22.2547 12.223C22.0375 12.0055 21.767 11.8489 21.4703 11.7688C20.3781 11.4751 16 11.4751 16 11.4751C16 11.4751 11.6219 11.4751 10.5297 11.7673C10.2328 11.8471 9.96223 12.0036 9.74501 12.2211C9.52779 12.4386 9.37162 12.7094 9.29219 13.0063C9 14.1001 9 16.3813 9 16.3813C9 16.3813 9 18.6626 9.29219 19.7548C9.45312 20.3579 9.92812 20.8329 10.5297 20.9938C11.6219 21.2876 16 21.2876 16 21.2876C16 21.2876 20.3781 21.2876 21.4703 20.9938C22.0734 20.8329 22.5469 20.3579 22.7078 19.7548C23 18.6626 23 16.3813 23 16.3813C23 16.3813 23 14.1001 22.7078 13.0079ZM14.6094 18.4751V14.2876L18.2344 16.3657L14.6094 18.4751Z" fill="#333333"/>
</svg>
